<svg width="125" height="24" viewBox="0 0 125 24" fill="none" xmlns="http://www.w3.org/2000/svg">
<rect width="48" height="24" rx="12" fill="#3182CE"/>
<path d="M29.25 8.75V8.5C29.2493 7.95828 29.0887 7.42882 28.7882 6.97806C28.4878 6.5273 28.0609 6.17532 27.5611 5.9663C27.0613 5.75727 26.511 5.70051 25.979 5.80313C25.4471 5.90575 24.9574 6.16318 24.5712 6.54313C24.5484 6.56615 24.5303 6.59346 24.5181 6.6235C24.5059 6.65354 24.4997 6.6857 24.5 6.71813V12.2631C24.5001 12.3082 24.5124 12.3524 24.5356 12.3911C24.5588 12.4297 24.592 12.4614 24.6317 12.4827C24.6714 12.504 24.7161 12.5142 24.7612 12.5122C24.8062 12.5102 24.8498 12.496 24.8875 12.4712C25.3629 12.1664 25.9152 12.003 26.48 12C26.6107 11.9976 26.7374 12.0453 26.834 12.1334C26.9306 12.2216 26.9898 12.3433 26.9994 12.4738C27.0029 12.5416 26.9926 12.6094 26.9691 12.6732C26.9456 12.7369 26.9093 12.7952 26.8625 12.8444C26.8157 12.8936 26.7594 12.9328 26.697 12.9596C26.6345 12.9863 26.5673 13.0001 26.4994 13C25.9689 13 25.4602 13.2107 25.0851 13.5858C24.7101 13.9609 24.4994 14.4696 24.4994 15V17.1175C24.4993 17.1549 24.5077 17.1918 24.5238 17.2256C24.5399 17.2593 24.5634 17.289 24.5925 17.3125C24.9473 17.6061 25.365 17.814 25.8132 17.9199C26.2615 18.0258 26.7281 18.0269 27.1768 17.9232C27.6255 17.8194 28.0442 17.6136 28.4004 17.3217C28.7566 17.0297 29.0407 16.6596 29.2306 16.24C29.2497 16.1978 29.2567 16.1511 29.2509 16.1052C29.245 16.0592 29.2265 16.0158 29.1974 15.9798C29.1683 15.9437 29.1297 15.9165 29.0861 15.9011C29.0424 15.8857 28.9953 15.8827 28.95 15.8925C28.6384 15.9639 28.3197 16 28 16H27.5169C27.3879 16.0016 27.263 15.9544 27.1674 15.8678C27.0718 15.7812 27.0124 15.6616 27.0012 15.5331C26.9967 15.4647 27.0063 15.3961 27.0294 15.3316C27.0524 15.2671 27.0885 15.208 27.1354 15.158C27.1823 15.108 27.239 15.0681 27.3019 15.041C27.3649 15.0138 27.4327 14.9998 27.5012 15H28.0012C28.5236 15.0008 29.0384 14.8747 29.5012 14.6325C30.0494 14.347 30.5048 13.9112 30.814 13.3761C31.1232 12.841 31.2734 12.2288 31.247 11.6113C31.2207 10.9939 31.0188 10.3967 30.6651 9.88992C30.3114 9.38313 29.8205 8.9877 29.25 8.75ZM28.5 11H28.25C27.6533 11 27.081 10.7629 26.659 10.341C26.237 9.91903 26 9.34674 26 8.75V8.5C26 8.36739 26.0527 8.24022 26.1464 8.14645C26.2402 8.05268 26.3674 8 26.5 8C26.6326 8 26.7598 8.05268 26.8535 8.14645C26.9473 8.24022 27 8.36739 27 8.5V8.75C27 8.91415 27.0323 9.0767 27.0951 9.22835C27.158 9.38001 27.25 9.51781 27.3661 9.63388C27.6005 9.8683 27.9185 10 28.25 10H28.5C28.6326 10 28.7598 10.0527 28.8535 10.1464C28.9473 10.2402 29 10.3674 29 10.5C29 10.6326 28.9473 10.7598 28.8535 10.8536C28.7598 10.9473 28.6326 11 28.5 11ZM21.5 5.75C20.7709 5.75083 20.0719 6.04082 19.5564 6.55637C19.0408 7.07192 18.7508 7.77091 18.75 8.5V8.75C18.1796 8.98783 17.6888 9.38336 17.3352 9.89023C16.9816 10.3971 16.7798 10.9943 16.7536 11.6117C16.7274 12.2292 16.8777 12.8413 17.187 13.3763C17.4963 13.9114 17.9518 14.3471 18.5 14.6325C18.9628 14.8747 19.4776 15.0008 20 15H20.4831C20.6123 14.9981 20.7375 15.0452 20.8334 15.1318C20.9292 15.2184 20.9888 15.3381 21 15.4669C21.0045 15.5353 20.995 15.6039 20.9719 15.6684C20.9488 15.7329 20.9127 15.792 20.8658 15.842C20.8189 15.892 20.7622 15.9319 20.6993 15.959C20.6364 15.9862 20.5685 16.0002 20.5 16H20C19.68 16.0001 19.3611 15.9639 19.0494 15.8919C19.0041 15.882 18.957 15.8849 18.9133 15.9002C18.8696 15.9156 18.8311 15.9427 18.8019 15.9787C18.7727 16.0146 18.7541 16.058 18.7482 16.1039C18.7422 16.1499 18.7491 16.1965 18.7681 16.2388C18.9579 16.6584 19.242 17.0287 19.5982 17.3208C19.9544 17.6128 20.3732 17.8188 20.822 17.9227C21.2707 18.0265 21.7374 18.0255 22.1857 17.9197C22.6341 17.8139 23.0519 17.6061 23.4069 17.3125C23.436 17.289 23.4595 17.2593 23.4756 17.2256C23.4917 17.1918 23.5 17.1549 23.5 17.1175V15C23.5 14.4696 23.2893 13.9609 22.9142 13.5858C22.5391 13.2107 22.0304 13 21.5 13C21.4321 13.0001 21.3648 12.9863 21.3024 12.9596C21.2399 12.9328 21.1836 12.8936 21.1368 12.8444C21.09 12.7952 21.0538 12.7369 21.0302 12.6732C21.0067 12.6094 20.9964 12.5416 21 12.4738C21.0096 12.3432 21.0688 12.2214 21.1656 12.1332C21.2623 12.0451 21.3891 11.9974 21.52 12C22.0848 12.003 22.6371 12.1664 23.1125 12.4712C23.1501 12.496 23.1938 12.5102 23.2388 12.5122C23.2838 12.5142 23.3286 12.504 23.3683 12.4827C23.408 12.4614 23.4412 12.4297 23.4644 12.3911C23.4876 12.3524 23.4999 12.3082 23.5 12.2631V6.71813C23.5002 6.6525 23.4746 6.58942 23.4287 6.5425C22.9154 6.03452 22.2222 5.74971 21.5 5.75ZM22 8.75C22 9.34674 21.7629 9.91903 21.341 10.341C20.919 10.7629 20.3467 11 19.75 11H19.5C19.3674 11 19.2402 10.9473 19.1464 10.8536C19.0527 10.7598 19 10.6326 19 10.5C19 10.3674 19.0527 10.2402 19.1464 10.1464C19.2402 10.0527 19.3674 10 19.5 10H19.75C19.9141 10 20.0767 9.96767 20.2283 9.90485C20.38 9.84203 20.5178 9.74996 20.6339 9.63388C20.7499 9.51781 20.842 9.38001 20.9048 9.22835C20.9677 9.0767 21 8.91415 21 8.75V8.5C21 8.36739 21.0527 8.24022 21.1464 8.14645C21.2402 8.05268 21.3674 8 21.5 8C21.6326 8 21.7598 8.05268 21.8535 8.14645C21.9473 8.24022 22 8.36739 22 8.5V8.75Z" fill="white"/>
<path d="M66.86 16.32V19H57.6V5.14H60.72V16.32H66.86ZM68.1695 13.82C68.1695 12.8867 68.3095 12.0733 68.5895 11.38C68.8829 10.6733 69.2629 10.0867 69.7295 9.62C70.1962 9.15333 70.7295 8.8 71.3295 8.56C71.9429 8.32 72.5695 8.2 73.2095 8.2C74.7029 8.2 75.8829 8.66 76.7495 9.58C77.6162 10.4867 78.0495 11.8267 78.0495 13.6C78.0495 13.7733 78.0429 13.9667 78.0295 14.18C78.0162 14.38 78.0029 14.56 77.9895 14.72H71.2295C71.2962 15.3333 71.5829 15.82 72.0895 16.18C72.5962 16.54 73.2762 16.72 74.1295 16.72C74.6762 16.72 75.2095 16.6733 75.7295 16.58C76.2629 16.4733 76.6962 16.3467 77.0295 16.2L77.4295 18.62C77.2695 18.7 77.0562 18.78 76.7895 18.86C76.5229 18.94 76.2229 19.0067 75.8895 19.06C75.5695 19.1267 75.2229 19.18 74.8495 19.22C74.4762 19.26 74.1029 19.28 73.7295 19.28C72.7829 19.28 71.9562 19.14 71.2495 18.86C70.5562 18.58 69.9762 18.2 69.5095 17.72C69.0562 17.2267 68.7162 16.6467 68.4895 15.98C68.2762 15.3133 68.1695 14.5933 68.1695 13.82ZM75.1695 12.68C75.1562 12.4267 75.1095 12.18 75.0295 11.94C74.9629 11.7 74.8495 11.4867 74.6895 11.3C74.5429 11.1133 74.3495 10.96 74.1095 10.84C73.8829 10.72 73.5962 10.66 73.2495 10.66C72.9162 10.66 72.6295 10.72 72.3895 10.84C72.1495 10.9467 71.9495 11.0933 71.7895 11.28C71.6295 11.4667 71.5029 11.6867 71.4095 11.94C71.3295 12.18 71.2695 12.4267 71.2295 12.68H75.1695ZM84.3692 16.92C84.6626 16.92 84.9426 16.9133 85.2092 16.9C85.4759 16.8867 85.6892 16.8667 85.8492 16.84V14.58C85.7292 14.5533 85.5492 14.5267 85.3092 14.5C85.0692 14.4733 84.8492 14.46 84.6492 14.46C84.3692 14.46 84.1026 14.48 83.8492 14.52C83.6092 14.5467 83.3959 14.6067 83.2092 14.7C83.0226 14.7933 82.8759 14.92 82.7692 15.08C82.6626 15.24 82.6092 15.44 82.6092 15.68C82.6092 16.1467 82.7626 16.4733 83.0692 16.66C83.3892 16.8333 83.8226 16.92 84.3692 16.92ZM84.1292 8.2C85.0092 8.2 85.7426 8.3 86.3292 8.5C86.9159 8.7 87.3826 8.98667 87.7292 9.36C88.0892 9.73333 88.3426 10.1867 88.4892 10.72C88.6359 11.2533 88.7092 11.8467 88.7092 12.5V18.7C88.2826 18.7933 87.6892 18.9 86.9292 19.02C86.1692 19.1533 85.2492 19.22 84.1692 19.22C83.4892 19.22 82.8692 19.16 82.3092 19.04C81.7626 18.92 81.2892 18.7267 80.8892 18.46C80.4892 18.18 80.1826 17.82 79.9692 17.38C79.7559 16.94 79.6492 16.4 79.6492 15.76C79.6492 15.1467 79.7692 14.6267 80.0092 14.2C80.2626 13.7733 80.5959 13.4333 81.0092 13.18C81.4226 12.9267 81.8959 12.7467 82.4292 12.64C82.9626 12.52 83.5159 12.46 84.0892 12.46C84.4759 12.46 84.8159 12.48 85.1092 12.52C85.4159 12.5467 85.6626 12.5867 85.8492 12.64V12.36C85.8492 11.8533 85.6959 11.4467 85.3892 11.14C85.0826 10.8333 84.5492 10.68 83.7892 10.68C83.2826 10.68 82.7826 10.72 82.2892 10.8C81.7959 10.8667 81.3692 10.9667 81.0092 11.1L80.6292 8.7C80.8026 8.64667 81.0159 8.59333 81.2692 8.54C81.5359 8.47333 81.8226 8.42 82.1292 8.38C82.4359 8.32667 82.7559 8.28667 83.0892 8.26C83.4359 8.22 83.7826 8.2 84.1292 8.2ZM97.7439 11.12C97.4772 11.0533 97.1639 10.9867 96.8039 10.92C96.4439 10.84 96.0572 10.8 95.6439 10.8C95.4572 10.8 95.2306 10.82 94.9639 10.86C94.7106 10.8867 94.5172 10.92 94.3839 10.96V19H91.4039V9.04C91.9372 8.85333 92.5639 8.68 93.2839 8.52C94.0172 8.34667 94.8306 8.26 95.7239 8.26C95.8839 8.26 96.0772 8.27333 96.3039 8.3C96.5306 8.31333 96.7572 8.34 96.9839 8.38C97.2106 8.40667 97.4372 8.44667 97.6639 8.5C97.8906 8.54 98.0839 8.59333 98.2439 8.66L97.7439 11.12ZM99.8414 8.84C100.348 8.69333 101.001 8.56 101.801 8.44C102.601 8.30667 103.441 8.24 104.321 8.24C105.215 8.24 105.955 8.36 106.541 8.6C107.141 8.82667 107.615 9.15333 107.961 9.58C108.308 10.0067 108.555 10.5133 108.701 11.1C108.848 11.6867 108.921 12.34 108.921 13.06V19H105.941V13.42C105.941 12.46 105.815 11.78 105.561 11.38C105.308 10.98 104.835 10.78 104.141 10.78C103.928 10.78 103.701 10.7933 103.461 10.82C103.221 10.8333 103.008 10.8533 102.821 10.88V19H99.8414V8.84ZM117.239 19.28C116.265 19.28 115.425 19.1467 114.719 18.88C114.012 18.6 113.425 18.22 112.959 17.74C112.505 17.2467 112.165 16.6667 111.939 16C111.725 15.32 111.619 14.5733 111.619 13.76V5.14H114.739V13.5C114.739 14.06 114.799 14.54 114.919 14.94C115.052 15.3267 115.225 15.6467 115.439 15.9C115.665 16.14 115.932 16.3133 116.239 16.42C116.559 16.5267 116.905 16.58 117.279 16.58C118.039 16.58 118.652 16.3467 119.119 15.88C119.599 15.4133 119.839 14.62 119.839 13.5V5.14H122.959V13.76C122.959 14.5733 122.845 15.32 122.619 16C122.392 16.68 122.045 17.2667 121.579 17.76C121.112 18.24 120.519 18.6133 119.799 18.88C119.079 19.1467 118.225 19.28 117.239 19.28Z" fill="#212B36"/>
</svg>
